<?xml version="1.0" standalone="no"?>
<!DOCTYPE svg PUBLIC "-//W3C//DTD SVG 1.1//EN" "http://www.w3.org/Graphics/SVG/1.1/DTD/svg11.dtd" >
<svg xmlns="http://www.w3.org/2000/svg">
<metadata>Generated by IcoMoon</metadata>
<defs>
<font id="icomoon" horiz-adv-x="1024">
<font-face units-per-em="1024" ascent="960" descent="-64" />
<missing-glyph horiz-adv-x="1024" />
<glyph unicode="&#x20;" d="" horiz-adv-x="512" />
<glyph unicode="&#xe600;" d="M803.062 601.334c-42.353 31.621-107.356 71.762-170.189 110.551l-2.58 1.597c-57.754 35.676-117.473 72.581-152.084 98.427-39.485 29.45-85.32 45.015-132.506 45.015-122.429 0-214.712-99.901-214.712-232.366v-421.11c0-132.465 92.324-232.366 214.753-232.366 47.268 0 93.102 15.606 132.506 45.097 37.642 28.099 98.14 68.977 146.76 101.827 68.076 45.875 118.538 80.118 156.754 108.708 70.656 52.675 111.206 126.566 111.206 202.711-0.041 67.748-31.99 128.778-89.907 171.909zM345.743 52.961c-75.735 0-132.833 64.676-132.833 150.446v421.151c0 85.77 57.098 150.446 132.792 150.446 29.409 0 58.286-9.953 83.599-28.754 37.847-28.221 100.475-66.888 160.973-104.284 61.44-37.929 124.232-76.677 163.84-106.25 36.659-27.361 56.893-65.126 56.975-106.373 0-49.889-28.549-99.901-78.316-137.093-37.56-27.976-91.341-64.43-152.617-105.718-49.398-33.341-110.797-74.834-150.979-104.776-25.149-18.842-53.985-28.795-83.436-28.795z" />
<glyph unicode="&#xe601;" d="M634.236 882.41c10.767-6.524-9.040-29.696 5.705-36.659 2.604-16.706 3.716-33.324 3.716-50.322-6.554-10.152-0.322-24.956-10.445-32.944 12.815 0-1.229-21.094 1.024-27.326 2.253-29.872-11.557-57.754-17.057-86.572-5.647 2.136-5.705 0.059-2.575-4.096-8.777-22.791-13.809-46.987-25.103-68.754-7.402-8.016-6.203-22.323-19.251-24.079 0.995-0.848 3.072-2.516 4.096-3.335-5.413-5.939-7.461-13.663-10.708-20.802-4.506-2.048-11.469-7.841-4.74-11.761-3.248-7.695-11.732-8.543-13.839-16.179-12.171-9.743-20.539-22.938-30.779-34.436-17.145-9.801-28.613-27.209-48.099-33.295-6.115 0.848-9.479 11.732-16.355 5.061-9.567-2.253-15.038-11.059-23.113-15.799-11.118-6.115-12.639-20.217-23.406-26.917-5.822 2.692-10.445 2.282-3.774-3.189-8.221-2.136-17.437-2.516-22.265-10.854-2.107-5.822-18.608-2.37-7.899-8.221-2.721-4.74-7.373-8.602-12.961-9.040 2.253 3.335 4.915 6.349 7.139 9.655-10.269-3.306-18.227-11.878-26.595-18.578-6.232-6.875-17.671-8.455-20.451-18.315 5.471-0.556 8.133 3.92 10.533 8.075 4.213-9.479-8.982-18.403-17.496-16.179-5.998 2.955-7.431-5.998-13.312-4.564-0.146-3.716 0.234-7.461 0.088-11.205-3.686-2.516-13.4-6.407-5.296-10.386-10.152-6.407-10.299-17.876-16.384-26.975-5.179-0.644-5.559-2.107-0.439-4.506-2.458-2.516-7.373 1.024-7.578-4.301 8.777-5.237-3.686-11.908-6.846-16.881-3.979-9.772-7.841-19.953-12.405-29.608-16.062-18.637-23.962-42.774-31.305-65.887-9.011-22.821-23.464-43.271-39.673-61.44-6.261 0.673-3.774-7.841-9.040-9.421-7.227-6.173-22.587-8.806-25.629 3.248 4.213 10.123 12.229 18.491 13.605 29.637 10.474 12.815 11.118 30.574 23.259 42.072-0.263 19.163 23.318 2.224 21.065 22.674 15.74 37.478 37.303 71.768 53.307 109.188 9.772 12.347 17.057 26.214 25.659 39.351-0.585 9.333-6.349 18.783-1.668 27.853-10.854-1.726-4.769 14.629-8.514 19.953-7.665 38.824-5.12 78 4.242 116.297-0.995 23.932 13.136 44.646 19.31 67.116 7.665 18.578 11.557 39.205 25.161 54.623 1.96-0.556 5.91-1.668 7.812-2.165-4.242 7.899-7.022 14.277 3.54 21.972 18.929 25.98 25.307 60.943 50.644 82.154 7.402 7.461 11.82 17.613 20.187 24.166 34.26 31.393 66.619 66.911 109.539 86.484 8.777 2.37 5.266 14.482 12.112 17.496 7.080 3.365-1.141-7.314 6.524-6.407 15.126 9.596 31.978 16.091 46.987 25.863 5.179-2.867 9.947-10.035 16.384-5.559 5.617 0 4.915 6.203 6.407 9.977 5.734-1.755 6.992 4.652 9.918 8.016 6.437 1.17 14.16 4.857 19.397-0.995 2.633 2.311 5.061 4.71 7.636 7.022zM595.88 845.253c-8.66-6.466-21.007-6.817-27.589-16.208-3.511-5.149-9.45-6.349-15.097-4.155 1.551-14.541-18.198-8.572-18.227-20.217 2.75-13.897 1.258-28.467 4.74-42.101 13.049-6.612 17.379 14.833 23.055 21.416 8.572 9.713 10.971 22.733 20.363 31.92 2.019 11.527 14.892 16.413 17.437 27.97-1.141 0.322-3.452 0.995-4.681 1.375zM611.24 792.971c-14.687-8.923-21.855-26.39-31.1-40.404 8.836-3.335 17.408 2.721 26.302 2.341 12.229-0.468 13.136 14.804 15.828 23.991 1.492 7.080-4.125 13.078-11.030 14.073zM613.025 749.583c-12.2-20.743-39.117-14.833-57.344-25.776-14.746-21.767-32.944-40.872-47.835-62.523 5.208-4.096 9.684-1.112 13.926 2.37 28.965 7.285 61.030 9.772 87.596 21.328 1.346 21.27 12.434 41.048 7.929 62.991-1.053 0.41-3.248 1.2-4.272 1.609zM512.614 789.402c-17.145-10.474-36.162-19.31-49.562-34.64 0.614-14.073 1.229-28.35 3.013-42.364 2.692-6.349 3.365-13.722 1.638-20.421-8.748-0.146-17.905 18.198-4.389 16.647-20.070 3.072 0.907 30.866-13.166 36.162-8.426-7.139-20.919-10.328-25.834-20.743 2.399-13.458-10.942-10.503-15.301-16.735-3.774-15.74-18.432-24.166-26.829-37.040-1.317-7.899-2.955-16.618 1.317-24.020 9.304-14.541 10.123-32.534 13.488-49.035 3.16-1.785 6.32-3.54 9.509-5.237-1.638-4.184-4.389-7.636-7.285-10.971 9.392-3.013 5.383-14.043 10.299-20.656 21.124 25.922 38.883 54.184 53.453 84.29 1.668 15.77-7.022 31.978-1.872 47.367 1.053-6.378 7.607-9.509 9.011-15.653 2.253-4.827-2.867-13.107 4.272-14.629 17.437 21.27 33.47 44.237 46.021 68.754-4.564 18.695-1.609 38.064-4.096 56.993-0.965 0.497-2.779 1.434-3.686 1.931zM599.391 673.456c-9.479-2.75-18.227-8.923-28.467-7.695-13.488 0.907-21.972-17.964-35.343-13.019-11.469-2.575-22.118-12.317-34.202-7.929-9.538 3.862-9.83-7.87-12.493-15.243-0.439-13.839-16.823-17.115-18.812-29.667-12.405-17.496-28.204-32.709-37.391-52.4 0.176-0.907 0.556-2.692 0.702-3.628 18.344 4.301 37.040 12.932 56.057 15.653 11.586-1.785 19.076 11.118 30.691 8.075-9.099-5.559-14.863-19.924-26.624-18.52 2.867 2.809 6.583 5.998-0.117 5.91-12.142-9.392-28.262-9.509-42.013-15.623-6.115-1.053-14.863 1.317-19.076-4.593-4.037-7.695-12.932-10.152-18.812-16.121-0.995-4.184-1.083-8.543-2.224-12.698-6.085-3.803-13.488-8.748-13.663-16.735-2.487-13.546-13.868-23.698-15.448-37.478 6.261-4.272 13.897-1.492 20.568-0.205 16.355 4.798 34.231 4.067 49.883 11.176 26.595 24.869 55.852 47.426 77.707 76.829 31.1 33.236 53.102 73.933 69.252 116.239 5.061 1.609 8.455 17.905-0.176 17.671zM366.416 650.138c0.497-11.498-14.98-11.703-14.16-23.815 0.351-22.323-6.495-10.094-12.112-6.524-1.785-3.16-1.2-5.851 1.609-8.016-4.096-6.085-4.71-13.429-6.115-20.451-3.423-4.096-10.474-6.963-6.407-13.166-15.126-18.256-8.689-42.891-4.798-64.19-1.492-11.469 11.205-20.041 5.208-31.685 3.394-10.299 4.447-21.943 5.91-33.265 9.157-9.011 15.711 9.362 19.397 14.219 4.476 15.506 18.666 26.507 22.118 42.628 6.641 11.615 16.384 21.826 20.334 34.992-4.857 13.663-4.915 28.584-11.118 41.808-4.008 7.812-5.764 17.847 2.458 23.347-14.365-3.716-19.105 24.196-4.037 23.757-12.493-0.293-13.926 11.176-18.286 20.363zM310.096 527.375c-2.311-4.155-4.447-8.806-2.545-13.575 2.019-4.242-6.203-7.461-0.234-10.474-19.573-15.887-11.557-42.511-16.179-64.044-7.227 5.208-19.69-1.551 3.072-5.53-4.067-10.357-9.275-23.757-2.604-34.202 6.7-9.918-6.758-22.967 2.633-31.949 18.491 10.854 21.563 35.021 33.119 51.551 11.761 20.656-3.365 41.311-7.168 61.82-0.878 7.022 8.016 0.38 8.543 7.344-3.248 1.404-9.509-0.293-8.748 5.032-3.248 11.088-0.673 26.536-9.889 34.026zM407.523 432.845c-13.926-0.819-26.624-6.583-40.258-8.953-9.947-2.662-11.761-15.653-22.996-14.629 13.663-18.666-26.156-34.348-10.445-53.833 12.405 12.873 29.608 20.539 39.614 35.606 14.19 11.381 30.252 20.48 40.814 35.928 6.378 3.745-3.452 5.734-6.729 5.881z" horiz-adv-x="731" />
<glyph unicode="&#xe602;" d="M648.533 374.613c0-47.070-38.229-85.333-85.333-85.333 0-47.070 38.229-85.333 85.333-85.333 47.070 0 85.333 38.263 85.333 85.333s-38.263 85.333-85.333 85.333zM648.533 545.28c-175.002 0-341.333-198.349-341.333-256s166.332-256 341.333-256c175.002 0 341.333 198.349 341.333 256s-166.332 256-341.333 256zM648.533 118.613c-94.242 0-170.667 76.39-170.667 170.667s76.425 170.667 170.667 170.667c94.276 0 170.667-76.39 170.667-170.667s-76.39-170.667-170.667-170.667zM297.199 501.146l-68.267 68.267c-13.346 13.346-34.918 13.346-48.265 0s-13.346-34.918 0-48.265l68.267-68.267c6.656-6.656 15.394-10.001 24.132-10.001s17.476 3.345 24.132 10.001c13.346 13.346 13.346 34.918 0 48.265zM415.334 628.736c6.588-9.865 17.408-15.189 28.433-15.189 6.485 0 13.073 1.877 18.91 5.734 15.667 10.479 19.9 31.642 9.455 47.343l-68.267 102.4c-10.479 15.701-31.676 19.934-47.343 9.455s-19.9-31.642-9.455-47.343l68.267-102.4zM614.4 852.48h68.267v-204.8h-68.267v204.8zM1116.399 569.412c-13.346 13.346-34.918 13.346-48.265 0l-68.267-68.267c-13.346-13.346-13.346-34.918 0-48.265 6.656-6.656 15.394-10.001 24.132-10.001s17.476 3.345 24.132 10.001l68.267 68.267c13.346 13.346 13.346 34.918 0 48.265zM853.299 613.547c11.025 0 21.845 5.325 28.433 15.189l68.267 102.4c10.479 15.701 6.212 36.864-9.455 47.343-15.701 10.479-36.864 6.246-47.343-9.455l-68.267-102.4c-10.479-15.701-6.212-36.864 9.455-47.343 5.803-3.857 12.425-5.734 18.91-5.734z" horiz-adv-x="1365" />
<glyph unicode="&#xe603;" d="M173.619 700.467l-8.397-181.811v-24.346l16.819 0.461c29.21 0 43.802-7.962 43.802-23.885 0-7.962-3.251-14.387-9.728-19.251s-14.976-7.296-25.446-7.296c-10.47 0-21.325 1.766-32.512 5.325v-256.563c0-26.547-7.808-39.808-23.45-39.808-9.446 0-20.198 4.557-32.282 13.696 5.018 53.965 8.781 130.714 11.264 230.246 2.509 99.533 4.659 164.634 6.426 195.302v22.118c2.33 43.93 3.533 84.941 3.533 122.982 0 8.55 3.61 15.181 10.829 19.917 7.219 4.71 15.334 7.066 24.32 7.066s18.662-0.307 28.979-0.896c10.624-0.589 23.45-2.048 38.477-4.429 34.202-5.018 51.302-15.462 51.302-31.411 0-17.101-15.334-25.651-46.003-25.651-12.109 5.888-27.878 8.858-47.334 8.858h-10.598v-10.624zM328.013 618.65l-4.864 76.518c0 42.752 12.672 64.128 38.042 64.128 16.205 0 38.323-3.738 66.355-11.264 28.006-7.526 42.035-17.178 42.035-28.979 0-12.39-8.858-21.837-26.547-28.314-28.032 9.446-50.867 15.181-68.582 17.254 0.896-12.979 1.331-25.958 1.331-38.938l-3.994-130.074c0-0.589 0.896-5.299 2.662-14.157l32.307 1.331c29.184 0 43.776-8.269 43.776-24.781 0-6.477-2.662-12.16-7.962-17.024s-12.006-7.296-20.122-7.296-16.896 0.589-26.317 1.766h-22.989c1.766-23.014 2.662-45.875 2.662-68.582l-3.994-164.096c0-33.946 0.589-50.893 1.766-50.893l66.79 2.227c23.014 0 34.509-7.373 34.509-22.118 0-9.139-3.994-15.744-11.955-19.891-7.962-4.122-16.973-6.195-26.982-6.195h-76.518c-7.962 0-15.181 2.739-21.683 8.192s-9.882 12.006-10.163 19.686v23.885l-5.76 153.062 6.195 264.55zM720.384 345.267l9.728-55.731c0-7.398 2.867-25.37 8.627-53.99 5.76-28.595 8.627-47.309 8.627-56.141v-0.896c0-13.261-5.018-21.837-15.027-25.651-12.672 0-22.554 2.048-29.645 6.195-7.066 4.096-10.624 12.083-10.624 23.885 0 25.677-4.429 62.976-13.286 111.923l-89.37 13.261c-5.606-20.045-9.882-42.010-12.826-65.894s-5.76-41.293-8.397-52.198c-5.325-22.4-15.206-33.613-29.645-33.613-7.091 0-13.645 2.278-19.686 6.861-6.042 4.557-9.062 10.394-9.062 17.459l2.202 7.987c40.704 157.184 70.938 310.246 90.675 459.187 0.589 4.122 1.485 16.23 2.662 36.275 2.944 44.237 8.55 72.397 16.819 84.506h30.515c8.243 0 15.488-1.92 21.683-5.76 6.195-3.814 9.293-9.574 9.293-17.254 0-46.003 6.118-114.278 18.355-204.8s18.381-155.802 18.381-195.61zM673.050 327.142c-1.766 8.858-2.662 24.243-2.662 46.208s-1.254 49.254-3.763 81.843c-2.509 32.589-6.118 70.477-10.829 113.69-4.736 43.213-7.962 74.547-9.728 94.003-27.418-151.885-45.107-258.944-53.069-321.152 10.291-6.81 36.992-11.648 80.051-14.592zM857.523 175.821l-1.766 69.453c0 0.307 0.461 10.598 1.357 30.95-2.381 7.68-7.168 75.802-14.387 204.39-7.245 128.563-11.136 207.181-11.725 235.776-1.178 0-2.355 0-3.533 0-48.973 0.87-73.446 9.882-73.446 26.982 0 5.606 3.226 10.24 9.728 13.926 6.477 3.686 12.826 5.53 19.021 5.53l122.982-8.397 14.592 0.435c18.842 0 28.288-7.219 28.288-21.683 0-7.373-3.098-13.338-9.293-17.92-6.17-4.582-13.107-6.861-20.787-6.861l-41.574 6.195-1.766-9.293c0-57.216 5.018-142.899 15.027-257.024 10.061-114.15 15.053-199.962 15.053-257.459 0-7.091-3.251-13.338-9.728-18.79-6.502-5.478-13.568-8.192-21.222-8.192l-16.819 11.981zM1209.651 565.094l0.896-15.462c0-268.083-38.938-402.099-116.813-402.099-30.080-0.307-52.352 11.93-66.79 36.71-15.053 25.344-24.192 50.586-27.418 75.648-5.018 38.63-7.885 82.944-8.627 132.915-0.742 49.997-1.101 122.163-1.101 216.525l-3.994 129.613c5.606 12.698 12.032 19.021 19.251 19.021s13.645-5.53 19.251-16.589 8.397-22.784 8.397-35.174v-246.4c0-21.53 2.15-53.53 6.4-96 4.301-42.445 6.451-74.445 6.451-96 0-44.237 19.149-66.355 57.498-66.355 43.059 0 64.563 162.355 64.563 487.040v50.918l-0.41 15.027c0 7.066 1.613 12.39 4.838 15.923s8.909 5.325 17.024 5.325 14.234-1.331 18.381-3.994c3.789-2.355 6.63-5.888 8.397-10.624 2.355-7.373 3.686-17.101 3.968-29.21l-6.17-91.136-3.994-75.622zM1318.938 464.691l-0.87-98.202c0-79.898 5.76-142.874 17.254-188.902l-10.189-24.294h-25.19l-11.955 13.261c0.589 27.162 0.896 57.6 0.896 91.341 0 33.766-2.611 105.958-7.757 216.55s-7.757 193.152-7.757 247.731c0 28.595 10.035 42.906 30.106 42.906 31.539 0 58.112-8.243 79.59-24.755 21.555-16.538 32.307-40.115 32.307-70.784v-63.693c0-17.408-3.251-33.254-9.728-47.539-6.477-14.31-14.029-29.338-22.579-45.133s-13.261-24.55-14.157-26.317c3.251-14.746 9.011-43.648 17.254-86.707 17.69-94.080 37.299-161.766 58.854-203.034 6.195-11.802 9.293-21.018 9.293-27.648 0-6.656-1.843-12.262-5.555-16.819s-8.627-6.886-14.797-6.886c-12.698 0-24.858 14.541-36.506 43.597s-21.018 61.261-28.109 96.64c-21.53 108.237-34.662 167.808-39.373 178.714h-11.034zM1322.445 731.443l-3.098-12.826c0-24.781 0.589-60.544 1.792-107.264 1.152-46.746 1.741-80.742 1.741-101.965 14.157 7.373 25.6 26.624 34.304 57.728 8.678 31.104 13.056 54.938 13.056 71.45s-0.461 28.672-1.357 36.506c-0.87 7.808-2.79 16.435-5.76 25.882-5.862 19.43-19.43 29.594-40.678 30.49zM1506.483 618.65l-4.864 76.518c0 42.752 12.698 64.128 38.042 64.128 16.23 0 38.349-3.738 66.355-11.264 28.032-7.526 42.061-17.178 42.061-28.979 0-12.39-8.858-21.837-26.547-28.314-28.032 9.446-50.867 15.181-68.582 17.254 0.87-12.979 1.331-25.958 1.331-38.938l-3.968-130.074c0-0.589 0.87-5.299 2.662-14.157l32.307 1.331c29.184 0 43.776-8.269 43.776-24.781 0-6.477-2.662-12.16-7.962-17.024s-12.006-7.296-20.122-7.296-16.87 0.589-26.317 1.766h-22.989c1.766-23.014 2.662-45.875 2.662-68.582l-3.968-164.096c0-33.946 0.563-50.893 1.766-50.893l66.79 2.227c22.989 0 34.509-7.373 34.509-22.118 0-9.139-3.994-15.744-11.955-19.891-7.962-4.122-16.947-6.195-27.008-6.195h-76.493c-7.987 0-15.206 2.739-21.709 8.192-6.477 5.453-9.882 12.006-10.138 19.686v23.885l-5.76 153.062 6.118 264.55zM1701.99 274.483l2.662 285.338c0 19.456-1.741 49.178-5.299 89.139s-5.299 65.382-5.299 76.288 3.379 19.379 10.138 25.446c6.81 6.042 14.029 9.062 21.709 9.062 62.208 0 112.794-36.429 151.731-109.261 22.426-41.6 33.613-85.53 33.613-131.814l-1.766-45.568v-49.997c0-60.749-2.714-101.299-8.166-121.651-5.478-20.326-11.162-37.299-17.050-50.867-5.888-13.542-12.979-25.651-21.222-36.25-19.174-24.192-43.341-43.648-72.55-58.394h-65.485c-15.334-0.026-23.014 39.475-23.014 118.528zM1765.248 223.616v-21.683c52.506 0 84.045 53.094 94.669 159.258 2.381 24.474 3.558 48.051 3.558 70.784 0 182.272-35.098 277.504-105.267 285.773-4.454-23.885-6.656-56.704-6.656-98.432s2.304-106.982 6.861-195.738c4.557-88.806 6.835-155.443 6.835-199.962z" horiz-adv-x="2048" />
<glyph unicode="&#xe604;" d="M503.467 172.305c-150.562 0-273.067 122.505-273.067 273.067s122.505 273.067 273.067 273.067 273.067-122.505 273.067-273.067-122.505-273.067-273.067-273.067zM503.467 684.305c-131.755 0-238.933-107.179-238.933-238.933s107.179-238.933 238.933-238.933 238.933 107.179 238.933 238.933-107.179 238.933-238.933 238.933zM395.366 360.585c-12.339 0-24.337 5.342-34.475 15.462-19.951 19.951-49.988 26.948-65.655 15.206-18.278-13.705-33.434-27.153-33.587-27.29l-11.332 12.766c0.631 0.563 15.838 14.046 34.679 28.177 22.391 16.811 61.867 9.284 87.945-16.794 8.311-8.294 17.715-11.742 27.221-10.018 11.793 2.202 22.494 12.288 29.338 27.699l12.8 29.082c8.789 19.78 21.862 31.010 36.813 31.676 15.002 0.649 28.877-9.335 39.322-28.143l19.029-34.167c7.97-14.353 14.95-18.961 19.268-18.295 3.908 0.546 9.762 6.878 13.466 22.938l20.497 88.849c6.639 28.723 20.634 35.174 28.382 36.471 7.714 1.297 23.074-0.222 38.707-25.242l13.312-25.617c22.204-35.413 46.643-57.532 54.238-57.532h25.6v-17.067h-25.6c-21.828 0-53.658 41.591-69.018 66.15l-13.312 25.617c-6.98 11.145-15.087 17.869-21.060 16.845-5.871-0.99-11.452-9.967-14.575-23.467l-20.497-88.849c-6.673-28.86-20.241-34.953-27.716-35.994-7.509-1.143-22.204 1.075-36.557 26.897l-19.029 34.167c-7.031 12.681-15.701 19.814-23.654 19.388-8.038-0.358-16.043-8.209-21.965-21.538l-12.8-29.065c-9.182-20.651-24.422-34.338-41.83-37.564-2.662-0.512-5.325-0.751-7.953-0.751zM351.744 332.271c-5.461 0-13.227 2.355-21.333 12.459l-46.95 58.675 13.329 10.667 46.933-58.675c3.942-4.949 7.168-6.229 8.346-6.042 1.178 0.307 3.396 2.987 4.642 9.199l20.753 103.731c3.413 17.084 11.895 20.89 16.657 21.623 4.745 0.768 13.978-0.29 22.443-15.531l52.19-93.918c2.953-5.342 6.076-7.851 7.953-7.526 1.826 0.085 4.762 2.645 7.236 8.192l40.533 91.221c4.847 10.923 13.193 17.988 22.903 19.405 9.438 1.399 19.678-2.953 27.46-12.049l57.958-67.635c9.182-10.735 25.378-11.93 36.096-2.765l93.542 80.179 11.093-12.954-93.542-80.196c-17.869-15.309-44.834-13.227-60.16 4.625l-57.958 67.635c-3.874 4.506-8.175 6.878-12.032 6.246-3.789-0.546-7.356-3.994-9.762-9.438l-40.533-91.221c-6.844-15.377-16.759-18.091-22.067-18.313-5.427-0.375-15.445 1.57-23.62 16.282l-52.19 93.935c-2.389 4.301-4.267 6.025-5.137 6.656-0.085-0.785-1.348-2.987-2.304-7.817l-20.753-103.731c-3.328-16.657-12.288-21.197-17.34-22.426-1.212-0.273-2.679-0.495-4.386-0.495z" />
<glyph unicode="&#xe605;" d="M384 314.88c70.707 0 128 63.053 128 140.8v204.8c0 77.773-57.293 140.8-128 140.8-70.682 0-128-63.027-128-140.8v-204.8c0-77.747 57.318-140.8 128-140.8zM612.045 442.88h-51.2c0-102.477-74.368-176.845-176.845-176.845s-176.87 74.368-176.87 176.845h-51.2c0-123.443 83.712-215.194 202.47-226.765v-106.035h-51.2v-51.2h153.6v51.2h-51.2v106.035c118.758 11.571 202.445 103.322 202.445 226.765z" horiz-adv-x="768" />
<glyph unicode="&#xe606;" d="M384 266.035c-34.304 0-65.306 8.55-91.52 23.526l38.554 38.554c16.179-8.192 33.971-13.235 52.966-13.235 70.707 0 128 63.053 128 140.8v53.402l184.499 184.499-36.198 36.198-576-576 36.198-36.198 134.144 134.144c29.67-19.354 64.819-31.846 103.757-35.635v-106.010h-51.2v-51.2h153.6v51.2h-51.2v106.035c118.758 11.571 202.445 103.322 202.445 226.765h-51.2c0-102.477-74.368-176.845-176.845-176.845zM215.475 387.354c-5.248 17.28-8.346 35.789-8.346 55.526h-51.2c0-34.893 7.066-66.995 19.379-95.667l40.166 40.141zM510.336 682.214c-9.523 67.405-62.387 119.066-126.336 119.066-70.707 0-128-63.027-128-140.8v-204.8c0-8.73 0.947-17.178 2.355-25.446l251.981 251.981z" horiz-adv-x="768" />
<glyph unicode="&#xe607;" d="M690.605 811.996v-5.977l-387.739-114.045 6.716-22.861h-23.814v-387.239c-22.671 18.742-51.7 30.029-83.349 30.029-72.228 0-130.977-58.773-130.977-130.977s58.749-130.977 130.977-130.977c59.821 0 110.282 40.365 125.904 95.256h5.072v506.070l357.209 105.067v-331.585c-22.671 18.742-51.724 30.029-83.349 30.029-72.204 0-130.977-58.749-130.977-130.977 0-72.204 58.773-130.977 130.977-130.977 59.821 0 110.282 40.365 125.904 95.256h5.072v523.907h-47.628zM202.419 97.578c-45.961 0-83.349 37.388-83.349 83.349s37.388 83.349 83.349 83.349 83.349-37.388 83.349-83.349-37.388-83.349-83.349-83.349zM607.256 240.461c-45.961 0-83.349 37.388-83.349 83.349s37.388 83.349 83.349 83.349 83.349-37.388 83.349-83.349-37.388-83.349-83.349-83.349z" horiz-adv-x="833" />
<glyph unicode="&#xe608;" d="M281.6 569.933l6.195 166.323v5.76c0 30.080 6.63 45.133 19.891 45.133 12.083 0 28.314-28.032 48.666-84.045 37.171-101.76 81.69-269.696 133.581-503.859l0.896-4.429 3.533 315.853v268.058c3.558 15.053 13.44 22.554 29.645 22.554 16.23 0 24.346-11.802 24.346-35.379v-5.299c-3.533-7.373-5.325-16.23-5.325-26.547l-5.76-334.874v-276.89c0-9.139-2.509-18.15-7.526-27.008s-11.213-13.312-18.586-13.312c-12.698 0-37.453 62.208-74.317 186.47-36.864 124.288-73.293 257.971-109.261 400.998v-297.267c0-28.902 2.125-71.962 6.4-129.152 4.275-57.216 6.4-100.301 6.4-129.203 0-5.606-3.405-10.24-10.163-13.901-6.784-3.712-15.411-5.555-25.882-5.555s-15.718 4.71-15.718 14.157l4.429 65.050c0 31.258-1.92 81.971-5.76 152.141-3.763 70.221-5.683 113.126-5.683 128.768v115.456zM707.61 427.034l-22.554 0.896c-8.858 0-15.027-2.202-18.586-6.656v-279.552c30.95 1.741 47.77 2.662 50.432 2.662 34.509 0 51.763-7.962 51.763-23.91v-3.098c-4.147-8.243-11.213-14.592-21.248-18.995-10.035-4.454-18.867-6.938-26.547-7.552-7.68-0.538-17.562-0.845-29.645-0.845h-28.314c-22.4 0-36.275 4.403-41.6 13.261-2.355 4.147-3.533 9.6-3.533 16.358v526.413c0 10.317-2.074 25.651-6.195 46.003-4.147 20.352-6.195 35.84-6.195 46.438v3.098c10.035 16.512 17.562 27.136 22.554 31.846l67.226 7.962c9.139 0 18.355-2.739 27.648-8.192s13.926-12.595 13.926-21.453c0-17.997-13.722-26.982-41.139-26.982l-26.112 0.896c-4.429 0-7.68-0.154-9.728-0.461l7.066-149.504c0-12.109-0.742-29.722-2.202-52.864-1.485-23.168-2.202-40.038-2.202-50.662 3.251 0.589 7.68 1.613 13.286 3.098 12.39 3.251 22.042 4.864 28.979 4.864s13.133-2.509 18.586-7.526c5.453-5.018 8.192-11.059 8.192-18.125s-2.202-13.414-6.63-19.021c-4.403-5.606-10.163-8.397-17.229-8.397zM1088.461 114.278c0-9.139-2.253-16.64-6.861-22.554-4.557-5.888-11.238-8.858-20.096-8.858-21.837 0-49.254 116.045-82.278 348.16-4.71 34.202-7.68 53.965-8.858 59.264-11.213-80.538-19.738-150.016-25.651-208.563s-8.858-116.557-8.858-174.054c0-6.502-2.714-12.339-8.192-17.51-5.453-5.146-11.392-7.757-17.894-7.757-22.093 0-33.178 22.989-33.178 68.992 0 28.314-12.467 131.738-37.376 310.349-24.934 178.56-40.781 276.275-47.539 293.069 7.654 14.438 18.406 21.683 32.307 21.683 13.85 0 26.445-31.411 37.811-94.234 11.341-62.822 21.094-138.982 29.21-228.48 8.090-89.523 12.288-134.861 12.595-136.013 0.896 8.243 3.891 33.69 9.062 76.288 5.171 42.624 9.216 76.902 12.186 102.861 8.858 78.438 13.261 134.17 13.261 167.219v17.254c0 6.477 2.458 12.749 7.296 18.79 4.864 6.042 10.394 9.062 16.589 9.062 21.53 0 32.307-8.832 32.307-26.547v-13.722c0-58.394 13.542-142.899 40.704-253.491 11.802-48.358 20.198-87.142 25.19-116.352 3.251 33.357 9.139 81.562 17.69 144.666 18.611 137.421 27.904 243.302 27.904 317.619 0 13.286 2.202 22.938 6.605 28.979 4.454 6.042 11.648 9.062 21.709 9.062 10.010 0 17.894-2.355 23.654-7.066 5.76-4.736 8.653-10.778 8.653-18.125 0-7.373-3.098-14.157-9.293-20.352 0-87.885-11.443-194.432-34.304-319.616s-34.355-231.834-34.355-320.026zM1308.339 427.034l-22.605 0.896c-8.858 0-15.002-2.202-18.56-6.656v-279.552c30.95 1.741 47.744 2.662 50.406 2.662 34.56 0 51.789-7.962 51.789-23.91v-3.098c-4.147-8.243-11.238-14.592-21.248-18.995-10.061-4.454-18.893-6.938-26.547-7.552-7.654-0.538-17.562-0.845-29.645-0.845h-28.288c-22.4 0-36.25 4.403-41.6 13.261-2.355 4.147-3.507 9.6-3.507 16.358v526.413c0 10.317-2.099 25.651-6.195 46.003-4.147 20.352-6.195 35.84-6.195 46.438v3.098c10.010 16.512 17.562 27.136 22.554 31.846l67.251 7.962c9.139 0 18.355-2.739 27.648-8.192s13.952-12.595 13.952-21.453c0-17.997-13.747-26.982-41.139-26.982l-26.112 0.896c-4.454 0-7.706-0.154-9.754-0.461l7.091-149.504c0-12.109-0.742-29.722-2.253-52.864-1.459-23.168-2.202-40.038-2.202-50.662 3.251 0.589 7.706 1.613 13.312 3.098 12.339 3.251 21.99 4.864 28.954 4.864s13.158-2.509 18.611-7.526 8.141-11.059 8.141-18.125-2.202-13.414-6.605-19.021c-4.454-5.606-10.189-8.397-17.254-8.397zM1397.709 105.882c0 16.256 6.758 24.346 20.352 24.346 6.758 0 15.693-2.304 26.752-6.861 11.059-4.608 20.659-6.861 28.749-6.861s16.896 5.146 26.342 15.462c9.395 10.342 16.794 23.142 22.093 38.502 10.906 31.258 16.358 59.494 16.358 84.71s-4.403 52.275-13.261 81.178-19.61 56.013-32.307 81.408c-12.698 25.37-25.498 50.714-38.502 76.083-30.643 60.442-45.85 115.61-45.542 165.427-0.307 47.181 14.592 84.198 44.698 111.027 15.898 14.157 34.662 21.248 56.141 21.248 10.906 0 21.555-3.021 31.846-9.062 10.342-6.042 17.562-13.926 21.709-23.654l-15.488-19.456c-15.053 0-26.854 2.944-35.405 8.858-11.213-1.178-20.941-6.502-29.21-15.923-15.002-17.408-22.554-38.861-22.554-64.384 0-25.498 3.251-50.355 9.754-74.547 6.451-24.166 14.592-45.85 24.294-65.024 9.754-19.174 20.198-39.962 31.462-62.387 11.494-22.4 22.093-43.93 31.846-64.589 22.707-47.77 34.048-99.405 34.048-154.829 0.307-38.938-9.6-76.365-29.645-112.384-9.446-17.101-22.4-31.155-38.938-42.189-16.512-11.11-34.893-16.589-55.245-16.589-21.862 0-39.040 3.251-51.558 9.702-12.544 6.477-18.79 13.44-18.79 20.787zM1754.24 621.235l-1.792-116.787 8.013-208.358 7.501-162.765c0-29.491-8.704-44.262-26.112-44.262-10.010 0-17.408 4.71-22.093 14.157-4.762 9.446-7.091 19.891-7.091 31.411l7.091 144.64c0 31.258-2.099 78.31-6.195 141.133-4.147 62.822-6.195 109.85-6.195 141.107l1.357 79.181c0 43.341-2.842 71.501-8.448 84.48l-49.101-4.864c-7.654 0-14.49 2.278-20.557 6.861-6.042 4.557-9.062 10.47-9.062 17.69s7.194 13.338 21.658 18.355c14.746 5.325 32.461 9.139 53.094 11.494 36.25 4.122 66.79 6.195 91.546 6.195 7.398 0 14.106-2.432 20.147-7.296s9.062-11.008 9.062-18.355c0-7.373-2.662-13.21-7.962-17.485s-11.802-6.4-19.456-6.4l-32.307 1.766c-4.147 0-7.245-0.154-9.293-0.435 4.147-34.79 6.195-71.936 6.195-111.462z" horiz-adv-x="2048" />
<glyph unicode="&#xe609;" d="M153.6 767.147c-28.262 0-51.2-22.903-51.2-51.2v-546.133c0-28.262 22.938-51.2 51.2-51.2s51.2 22.938 51.2 51.2v546.133c0 28.297-22.938 51.2-51.2 51.2zM529.067 767.147c-28.262 0-51.2-22.903-51.2-51.2v-546.133c0-28.262 22.938-51.2 51.2-51.2s51.2 22.938 51.2 51.2v546.133c0 28.297-22.938 51.2-51.2 51.2z" horiz-adv-x="683" />
<glyph unicode="&#xe60a;" d="M770.294 529.838c-96.174 62.956-253.501 165.929-349.676 228.844-96.174 62.956-174.858 11.469-174.858-114.401s0-331.858 0-457.728c0-125.829 78.684-177.316 174.858-114.401 96.174 62.956 253.501 165.929 349.676 228.884 96.133 62.874 96.133 165.888 0 228.803z" />
<glyph unicode="&#xe60b;" d="M337.633 24.842v0c-99.082 0-173.793 82.289-173.793 191.406v421.11c0 109.117 74.711 191.406 173.752 191.406 38.339 0 75.694-12.78 108.052-36.864 36.659-27.32 98.263-65.372 157.86-102.195 61.972-38.257 125.993-77.783 166.994-108.38 47.309-35.267 73.359-84.705 73.4-139.141 0-63.119-34.529-125.010-94.7-169.902-39.977-29.86-98.017-69.059-154.132-106.947-54.968-37.11-111.78-75.53-149.422-103.588-32.317-24.166-69.714-36.905-108.012-36.905zM337.592 705.884c-25.313 0-50.872-21.176-50.872-68.526v-421.11c0-69.14 50.668-81.92 85.484-56.033 39.977 29.86 97.976 69.059 154.132 106.947 54.927 37.11 111.78 75.53 149.463 103.588 27.894 20.849 45.22 48.21 45.22 71.393 0 15.36-7.864 28.631-24.003 40.673-36.7 27.361-98.386 65.495-158.065 102.359-64.676 39.936-125.788 77.66-166.748 108.216-10.977 8.192-22.938 12.493-34.611 12.493z" />
<glyph unicode="&#xe60c;" d="M673.751 377.999l-16.2-17.408 65.7-61.071h-83.251c-64.942 0-117.76 59.72-117.76 133.12s52.818 133.12 117.76 133.12h70.328l-52.756-49.050 16.2-17.408 71.455 66.458h12.534v11.653l20.48 19.046-104.489 97.157-16.2-17.408 74.772-69.489h-92.324c-59.29 0-110.981-35.881-138.24-88.842-27.259 52.961-78.95 88.842-138.24 88.842h-138.24v-40.96h138.24c64.922 0 117.76-59.72 117.76-133.12s-52.838-133.12-117.76-133.12h-138.24v-40.96h138.24c59.29 0 110.981 35.901 138.24 88.842 27.259-52.941 78.95-88.842 138.24-88.842h79.38l-61.829-57.467 16.2-17.408 80.527 74.875h3.482v3.236l20.48 19.046-104.489 97.157z" />
<glyph unicode="&#xe60d;" d="M768.176 651.688c-10.269 12.434-28.672 14.19-41.165 3.95-12.464-10.299-14.19-28.731-3.92-41.194 43.096-52.253 66.853-118.374 66.853-186.192 0-161.324-131.248-292.571-292.571-292.571s-292.571 131.248-292.571 292.571c0 133.12 90.288 247.837 215.508 282.010l-3.95-47.601c-1.317-16.062 9.479-23.552 24.049-16.677l147.602 69.661c14.57 6.846 15.653 20.012 2.399 29.14l-134.085 93.038c-13.224 9.157-25.132 3.54-26.448-12.522l-4.476-53.541c-160.856-33.558-279.113-176.596-279.113-343.508 0-193.595 157.491-351.086 351.086-351.086s351.086 157.491 351.086 351.086c0 81.393-28.526 160.739-80.282 223.437z" />
<glyph unicode="&#xe60e;" d="M755.405 716.39l-34.782-52.053c63.556-51.61 104.243-130.355 104.243-218.59 0-88.303-40.653-167.049-104.243-218.658l34.782-51.985c80.282 62.908 132.062 160.597 132.062 270.609 0 109.978-51.78 207.701-132.062 270.677zM685.67 611.942l-35.123-52.565c30.345-28.57 49.459-68.779 49.459-113.698s-19.149-85.163-49.459-113.732l35.123-52.599c46.797 40.277 76.663 99.806 76.663 166.366s-29.798 126.054-76.663 166.229zM512 789.879c-36.796 0-47.957-21.402-47.957-21.402s-95.778-105.233-161.724-151.654c-12.117-7.714-25.463-14.677-49.050-14.677h-54.17c-34.509 0-62.566-28.023-62.566-62.566v-187.733c0-34.543 28.058-62.566 62.566-62.566h54.135c23.586 0 36.932-6.997 49.015-14.677 65.946-46.455 161.724-151.689 161.724-151.689s11.23-21.367 48.026-21.367c34.543 0 62.601 27.955 62.601 62.566v563.2c0 34.577-28.058 62.566-62.601 62.566z" />
<glyph unicode="&#xe60f;" d="M895.037 370.77c6.124 28.037-23.081 42.312-29.839 66.335 0.123 4.383 0.635 8.643 0.635 13.066 0 91.177-30.72 174.981-81.879 242.442 1.352 17.838 3.4 35.492 6.717 52.756-2.519 0.819-5.079 1.454-7.557 2.273-6.205 32.952-49.562 29.635-59.679 60.826-18.35 43.889-71.926 35.615-101.151 66.806-28.754 22.2-80.486 22.282-115.487 9.748-21.32-13.701-43.889-24.576-66.99-34.14-210.719-12.534-377.856-186.86-377.856-400.712 0-26.255 2.683-51.855 7.475-76.698-9.032-16.015-12.472-29.45 4.956-32.87 1.085-0.492 2.273-0.84 3.4-1.352 7.762-27.013 18.084-52.92 31.048-77.292-5.284-11.080-8.991-21.709-8.090-30.208 4.157-15.892 7.516-32.031 8.97-48.394 19.681-56.402 38.564-118.968 91.689-153.477 30.351-5.509 60.846-9.216 91.914-7.393 20.111 7.598 42.312-2.601 61.952 7.168 23.286-1.618 46.674-1.331 69.366-7.619 57.242 14.131 119.235-2.785 173.711 21.668 94.167 15.585 173.65 77.804 233.042 151.593 5.96 31.703 15.155 63.283 28.283 94.208 11.53 27.197 25.559 52.572 41.431 76.268-1.987 1.659-4.096 3.256-6.062 4.997zM642.765 381.44h-130.765v-114.586c0-16.957-13.763-30.72-30.72-30.72s-30.72 13.763-30.72 30.72v114.586h-135.475c-16.957 0-30.72 13.763-30.72 30.72s13.763 30.72 30.72 30.72h135.475v151.654c0 16.978 13.763 30.72 30.72 30.72s30.72-13.742 30.72-30.72v-151.654h130.765c16.957 0 30.72-13.763 30.72-30.72s-13.763-30.72-30.72-30.72z" />
<glyph unicode="&#xe610;" d="M848.159 164.639l-139.1 139.1c43.172 55.46 69.181 124.969 69.181 200.581 0 180.675-147.005 327.68-327.68 327.68s-327.68-147.005-327.68-327.68 147.005-327.68 327.68-327.68c75.612 0 145.121 26.010 200.581 69.14l139.1-139.1c7.987-7.946 18.473-11.96 28.959-11.96s20.972 4.014 28.959 12.001c16.015 16.015 16.015 41.902 0 57.917zM204.8 504.32c0 135.537 110.223 245.76 245.76 245.76s245.76-110.223 245.76-245.76-110.223-245.76-245.76-245.76-245.76 110.223-245.76 245.76z" />
<glyph unicode="&#xe611;" d="M475.773 303.024c-20.321 0-39.14-6.144-55.046-16.407l-133.484 100.102c4.733 11.765 7.509 24.508 7.509 37.956 0 17.18-4.688 33.155-12.242 47.377l132.642 94.754c16.998-12.698 37.842-20.48 60.621-20.48 56.183 0 101.877 45.716 101.877 101.899 0 56.161-45.693 101.877-101.877 101.877s-101.877-45.693-101.877-101.877c0-16.862 4.506-32.518 11.787-46.535l-132.961-94.982c-16.839 12.334-37.433 19.843-59.847 19.843-56.161 0-101.854-45.716-101.854-101.877 0-56.183 45.693-101.899 101.877-101.899 26.305 0 50.062 10.286 68.153 26.715l127.863-95.892c-9.307-15.383-14.996-33.2-14.996-52.474 0-56.183 45.693-101.877 101.877-101.877s101.877 45.693 101.877 101.877-45.716 101.899-101.899 101.899zM475.773 704.569c31.061 0 56.366-25.281 56.366-56.366s-25.281-56.388-56.366-56.388-56.366 25.281-56.366 56.388c0.023 31.084 25.304 56.366 56.366 56.366zM192.899 368.31c-31.084 0-56.366 25.281-56.366 56.366s25.281 56.366 56.366 56.366 56.366-25.281 56.366-56.366c-0.023-31.084-25.304-56.366-56.366-56.366zM475.773 144.782c-31.061 0-56.366 25.281-56.366 56.366s25.281 56.366 56.366 56.366 56.366-25.281 56.366-56.366-25.304-56.366-56.366-56.366z" horiz-adv-x="683" />
<glyph unicode="&#xe612;" d="M760.686 637.352v39c0 40.667-33.090 73.728-73.757 73.728h-466.885c-40.667 0-73.757-33.061-73.757-73.728v-466.944c0-40.667 33.090-73.728 73.757-73.728h466.915c40.638 0 73.728 33.061 73.728 73.728v39.029c87.771 0 194.443 87.216 194.443 194.443s-106.672 194.472-194.443 194.472zM702.171 209.408c0-8.368-6.817-15.214-15.243-15.214h-466.885c-8.426 0-15.243 6.817-15.243 15.214v123.465l15.74 24.43c14.541 22.557 51.902 34.085 81.686 25.424 34.582-10.123 84.758-13.253 109.509 0.995 18.022 10.357 54.828 31.627 81.832 47.28 24.722 14.365 66.267 26.507 90.726 26.507 27.941 0 66.063 3.452 84.933 7.665l32.709 7.314-6.407 28.555-32.709-7.314c-16.852-3.774-52.809-6.963-78.526-6.963-29.725 0-76.010-13.371-105.443-30.427-26.975-15.653-63.722-36.893-81.715-47.221-12.902-7.431-52.663-8.309-86.66 1.697-37.595 11.001-81.072-0.585-105.677-26.565v292.103c0 8.397 6.817 15.214 15.243 15.214h466.915c8.397 0 15.214-6.817 15.214-15.214v-466.944zM760.686 277.694v84.729c38.971 6.203 68.871 39.702 68.871 80.457s-29.901 74.225-68.871 80.457v84.758c87.771 0 165.186-74.108 165.186-165.215 0-91.077-77.414-165.186-165.186-165.186z" />
<glyph unicode="&#xe613;" d="M852.348 479.568l-200.792 251.494c-27.853 34.875-69.573 54.857-114.483 54.857-33.031 0-65.39-11.323-91.107-31.861l-251.494-200.821c-63.020-50.352-73.348-142.599-23.025-205.59l200.821-251.494c27.853-34.875 69.573-54.886 114.512-54.886 33.031 0 65.39 11.323 91.107 31.861l251.465 200.821c30.427 24.283 49.591 59.129 53.979 98.041 4.301 38.941-6.671 77.151-30.983 107.579zM806.619 443.056c11.586-14.482 17.818-31.978 18.725-50.293l-288.388 111.382 26.741 218.697c16.384-5.149 31.159-14.57 42.13-28.292l200.792-251.494zM230.985 507.538l251.494 200.821c15.009 11.966 33.031 18.373 52.283 18.871l-27.385-224.051-307.493-48.245c3.686 20.041 13.985 38.941 31.1 52.604zM417.968 132.696l-200.821 251.494c-9.83 12.317-15.419 26.507-17.701 41.077l304.362 47.748-41.311-368.874c-17.232 4.74-33.090 14.248-44.529 28.555zM792.81 319.707l-251.465-200.821c-14.336-11.44-31.92-17.203-49.737-17.993l41.808 373.292 288.388-111.411c-5.091-16.911-15.009-31.861-28.994-43.067z" />
<glyph unicode="&#xe614;" d="M512 698.88l75.213-152.474 168.294-24.422-121.805-118.63 28.774-167.578-150.477 79.104-150.477-79.104 28.774 167.578-121.754 118.63 168.243 24.422z" />
</font>
</defs>
</svg>
